<svg xmlns="http://www.w3.org/2000/svg" xmlns:xlink="http://www.w3.org/1999/xlink" width="1920" zoomAndPan="magnify" viewBox="0 0 1440 809.999993" height="1080" preserveAspectRatio="xMidYMid meet" version="1.0"><defs><clipPath id="10385bede2"><path d="M 501.566406 309 L 640 309 L 640 501 L 501.566406 501 Z M 501.566406 309 " clip-rule="nonzero"/></clipPath><clipPath id="65518455d8"><path d="M 692.058594 311 L 831 311 L 831 502 L 692.058594 502 Z M 692.058594 311 " clip-rule="nonzero"/></clipPath><clipPath id="fbee4e66f7"><path d="M 1343.5625 309 L 1365.3125 309 L 1365.3125 500 L 1343.5625 500 Z M 1343.5625 309 " clip-rule="nonzero"/></clipPath><clipPath id="0faf41f416"><path d="M 91.507812 284 L 215 284 L 215 431 L 91.507812 431 Z M 91.507812 284 " clip-rule="nonzero"/></clipPath></defs><path fill="#03c9d9" d="M 399.699219 284.242188 L 404.417969 284.242188 L 404.417969 525.371094 L 399.699219 525.371094 Z M 399.699219 284.242188 " fill-opacity="1" fill-rule="nonzero"/><g clip-path="url(#10385bede2)"><path fill="#00c9d9" d="M 518.824219 309.886719 C 516.433594 309.886719 514.578125 311.746094 514.578125 314.40625 L 514.578125 327.679688 C 514.578125 329.804688 516.171875 331.660156 518.824219 331.660156 L 581.484375 331.660156 C 601.664062 331.660156 618.125 350.25 618.125 369.894531 C 618.125 388.746094 601.925781 406.535156 582.816406 407.867188 L 506.085938 407.605469 C 503.695312 407.605469 501.839844 409.460938 501.839844 412.121094 L 501.839844 496.023438 C 501.839844 498.675781 503.167969 500.003906 506.085938 500.003906 L 519.628906 500.003906 C 522.550781 500.003906 523.875 498.675781 523.875 496.023438 L 523.875 429.378906 L 582.019531 429.378906 C 617.066406 429.378906 639.636719 399.375 639.636719 368.84375 C 639.636719 336.1875 617.597656 309.902344 583.085938 309.902344 Z M 518.824219 309.886719 " fill-opacity="1" fill-rule="nonzero"/></g><g clip-path="url(#65518455d8)"><path fill="#fe0d6d" d="M 696.207031 408.929688 C 693.816406 408.929688 691.960938 410.789062 691.960938 413.449219 L 691.960938 497.347656 C 691.960938 500.003906 693.289062 501.332031 696.207031 501.332031 L 710.011719 501.332031 C 712.667969 501.332031 713.996094 500.003906 713.996094 497.347656 L 713.996094 430.703125 L 759.402344 430.703125 L 799.492188 497.347656 C 800.820312 499.476562 802.675781 501.332031 805.332031 501.332031 L 825.242188 501.332031 C 826.832031 501.332031 827.628906 501.070312 827.628906 500.535156 C 827.628906 500.003906 827.367188 499.476562 826.832031 498.410156 L 785.414062 429.375 C 811.433594 421.941406 830.546875 397.515625 830.546875 370.699219 C 830.546875 338.574219 803.464844 311.222656 771.871094 311.222656 L 707.613281 311.222656 C 704.960938 311.222656 703.367188 312.554688 703.367188 315.207031 L 703.367188 328.480469 C 703.367188 331.132812 704.699219 332.996094 707.613281 332.996094 L 771.597656 332.996094 C 791.777344 332.996094 808.238281 351.585938 808.238281 370.96875 C 808.238281 389.816406 792.304688 407.609375 773.453125 408.9375 L 696.207031 408.9375 Z M 696.207031 408.929688 " fill-opacity="1" fill-rule="nonzero"/></g><path fill="#ffc52f" d="M 887.960938 309.886719 C 885.832031 309.886719 883.976562 311.480469 883.976562 313.871094 L 883.976562 496.003906 C 883.976562 498.660156 885.308594 499.988281 887.960938 499.988281 L 901.765625 499.988281 C 904.417969 499.988281 906.285156 498.660156 906.285156 496.003906 L 906.285156 314.132812 C 906.285156 311.746094 905.222656 309.886719 901.765625 309.886719 Z M 887.960938 309.886719 " fill-opacity="1" fill-rule="nonzero"/><path fill="#03c9d9" d="M 1079.949219 310.269531 L 1006.40625 310.269531 C 1004.015625 310.269531 1002.160156 311.863281 1002.160156 314.25 L 1002.160156 496.125 C 1002.160156 498.511719 1004.015625 500.371094 1006.40625 500.371094 L 1019.679688 500.371094 C 1022.332031 500.371094 1024.199219 498.242188 1024.199219 496.125 L 1024.199219 332.304688 L 1079.949219 332.304688 C 1082.875 332.304688 1084.730469 330.449219 1084.730469 327.261719 L 1084.730469 314.25 C 1084.199219 311.863281 1082.339844 310.269531 1079.949219 310.269531 Z M 1079.949219 310.269531 " fill-opacity="1" fill-rule="nonzero"/><path fill="#fe0d6d" d="M 1228.089844 404.941406 C 1291.277344 312.015625 1291.546875 311.21875 1291.546875 310.691406 C 1291.546875 310.160156 1291.011719 309.632812 1289.691406 309.632812 L 1270.578125 309.632812 C 1267.925781 309.632812 1266.058594 310.964844 1263.941406 313.878906 L 1214.5625 386.625 L 1165.179688 313.878906 C 1163.324219 310.957031 1161.199219 309.632812 1158.808594 309.632812 L 1139.425781 309.632812 C 1138.09375 309.632812 1137.566406 310.167969 1137.566406 310.691406 C 1137.566406 311.21875 1137.832031 312.023438 1201.289062 404.679688 C 1137.832031 497.335938 1137.566406 498.132812 1137.566406 498.667969 C 1137.566406 499.464844 1138.101562 499.726562 1139.425781 499.726562 L 1158.808594 499.726562 C 1161.199219 499.726562 1163.054688 498.394531 1165.179688 495.480469 L 1214.5625 422.734375 L 1263.941406 495.480469 C 1266.066406 498.402344 1267.925781 499.726562 1270.578125 499.726562 L 1289.691406 499.726562 C 1291.019531 499.726562 1291.546875 499.464844 1291.546875 498.667969 C 1291.539062 498.132812 1291.277344 497.335938 1228.089844 404.941406 Z M 1228.089844 404.941406 " fill-opacity="1" fill-rule="nonzero"/><g clip-path="url(#fbee4e66f7)"><path fill="#ffc52f" d="M 1347.199219 309.886719 C 1345.070312 309.886719 1343.214844 311.480469 1343.214844 313.871094 L 1343.214844 496.003906 C 1343.214844 498.660156 1344.546875 499.988281 1347.199219 499.988281 L 1361.007812 499.988281 C 1363.660156 499.988281 1365.523438 498.660156 1365.523438 496.003906 L 1365.523438 314.132812 C 1365.523438 311.746094 1364.464844 309.886719 1361.007812 309.886719 Z M 1347.199219 309.886719 " fill-opacity="1" fill-rule="nonzero"/></g><g clip-path="url(#0faf41f416)"><path fill="#03c9d9" d="M 214.273438 321.074219 C 208.136719 320.199219 201.996094 319.320312 194.984375 319.320312 C 138.863281 319.3125 94.144531 364.03125 94.144531 420.152344 L 94.144531 430.675781 C 92.390625 421.90625 91.515625 414.007812 91.515625 405.246094 C 91.515625 338.609375 145.882812 284.242188 212.519531 284.242188 L 214.273438 284.242188 Z M 214.273438 321.074219 " fill-opacity="1" fill-rule="evenodd"/></g><path fill="#fe0d6d" d="M 194.984375 326.332031 C 202.003906 326.332031 208.136719 327.207031 214.273438 328.085938 L 214.273438 346.496094 C 208.136719 344.742188 201.996094 343.867188 194.984375 343.867188 C 152.894531 343.867188 117.824219 378.0625 117.824219 420.152344 C 117.824219 462.242188 152.894531 497.3125 194.984375 497.3125 C 237.074219 497.3125 271.269531 462.242188 271.269531 420.152344 L 271.269531 411.378906 L 287.925781 411.378906 C 288.804688 414.007812 288.804688 417.515625 288.804688 420.152344 C 288.804688 471.882812 246.714844 513.972656 194.984375 513.972656 C 143.253906 513.972656 101.164062 471.882812 101.164062 420.152344 C 101.164062 368.421875 143.246094 326.332031 194.984375 326.332031 Z M 194.984375 326.332031 " fill-opacity="1" fill-rule="evenodd"/><path fill="#ffc52f" d="M 220.414062 329.835938 C 255.484375 339.484375 281.792969 369.289062 287.925781 405.246094 L 270.390625 405.246094 C 265.132812 378.9375 245.835938 357.019531 220.414062 348.25 Z M 220.414062 329.835938 " fill-opacity="1" fill-rule="evenodd"/><path fill="#03c9d9" d="M 332.644531 411.386719 C 329.140625 475.394531 276.527344 525.371094 212.519531 525.371094 C 197.613281 525.371094 184.460938 522.742188 171.304688 518.359375 C 179.199219 520.113281 187.089844 520.992188 194.984375 520.992188 C 250.226562 520.992188 295.824219 476.269531 295.824219 420.152344 L 295.824219 411.378906 Z M 332.644531 411.386719 " fill-opacity="1" fill-rule="evenodd"/></svg>