<?xml version="1.0" encoding="utf-8"?>
<!-- Generator: Adobe Illustrator 25.2.1, SVG Export Plug-In . SVG Version: 6.00 Build 0)  -->
<svg version="1.1" id="Capa_1" xmlns="http://www.w3.org/2000/svg" xmlns:xlink="http://www.w3.org/1999/xlink" x="0px" y="0px"
	 viewBox="0 0 1240 1240" style="enable-background:new 0 0 1240 1240;" xml:space="preserve">
<style type="text/css">
	.st0{fill-rule:evenodd;clip-rule:evenodd;fill:#00C9D9;}
	.st1{fill-rule:evenodd;clip-rule:evenodd;fill:#FE0D6D;}
	.st2{fill-rule:evenodd;clip-rule:evenodd;fill:#FFC52F;}
</style>
<path class="st0" d="M628.5,296.8c-23.7-3.4-47.5-6.8-74.6-6.8c-217,0-389.8,172.8-389.8,389.7v40.7c-6.8-33.9-10.2-64.4-10.2-98.3
	c0-257.6,210.2-467.7,467.8-467.7h6.8V296.8z"/>
<path class="st1" d="M553.9,317.1c27.1,0,50.9,3.4,74.6,6.8V395c-23.7-6.8-47.5-10.2-74.6-10.2c-162.7,0-298.3,132.2-298.3,294.9
	s135.6,298.2,298.3,298.2s294.9-135.6,294.9-298.2v-33.9h64.4c3.4,10.2,3.4,23.7,3.4,33.9c0,199.9-162.7,362.6-362.7,362.6
	S191.2,879.6,191.2,679.7C191.2,479.8,353.9,317.1,553.9,317.1z"/>
<path class="st2" d="M652.2,330.6c135.6,37.3,237.3,152.5,261,291.5h-67.8c-20.3-101.7-94.9-186.4-193.2-220.3V330.6z"/>
<path class="st0" d="M1086.1,645.8c-13.6,247.4-217,440.6-464.4,440.6c-57.6,0-108.5-10.2-159.3-27.1c30.5,6.8,61,10.2,91.5,10.2
	c213.6,0,389.8-172.8,389.8-389.8v-33.9H1086.1z"/>
</svg>
