<?xml version="1.0" encoding="utf-8"?>
<!-- Generator: Adobe Illustrator 25.2.1, SVG Export Plug-In . SVG Version: 6.00 Build 0)  -->
<svg version="1.1" id="Capa_1" xmlns="http://www.w3.org/2000/svg" xmlns:xlink="http://www.w3.org/1999/xlink" x="0px" y="0px"
	 viewBox="0 0 1700 326.4" style="enable-background:new 0 0 1700 326.4;" xml:space="preserve">
<style type="text/css">
	.st0{fill:#FFFFFF;}
	.st1{clip-path:url(#SVGID_2_);}
	.st2{fill-rule:evenodd;clip-rule:evenodd;fill:#00C9D9;}
	.st3{fill-rule:evenodd;clip-rule:evenodd;fill:#FE0D6D;}
	.st4{fill-rule:evenodd;clip-rule:evenodd;fill:#FFC52F;}
</style>
<path class="st0" d="M569.1,39.2c-3.2,0-5.7,2.5-5.7,6v17.7c0,2.8,2.1,5.3,5.7,5.3h83.6c26.9,0,48.9,24.8,48.9,51
	c0,25.1-21.6,48.8-47.1,50.6l-102.3-0.4c-3.2,0-5.7,2.5-5.7,6v111.8c0,3.5,1.8,5.3,5.7,5.3h18.1c3.9,0,5.7-1.8,5.7-5.3v-88.8h77.5
	c46.7,0,76.8-40,76.8-80.7c0-43.5-29.4-78.6-75.4-78.6L569.1,39.2z"/>
<path class="st0" d="M806.4,169.4c-3.2,0-5.7,2.5-5.7,6v111.8c0,3.5,1.8,5.3,5.7,5.3h18.4c3.5,0,5.3-1.8,5.3-5.3v-88.8h60.6
	l53.5,88.8c1.8,2.8,4.2,5.3,7.8,5.3h26.6c2.1,0,3.2-0.3,3.2-1.1c0-0.7-0.4-1.4-1.1-2.8l-55.2-92c34.7-9.9,60.2-42.5,60.2-78.2
	c0-42.8-36.1-79.3-78.2-79.3h-85.7c-3.5,0-5.7,1.8-5.7,5.3v17.7c0,3.5,1.8,6,5.7,6H907c26.9,0,48.9,24.8,48.9,50.6
	c0,25.1-21.2,48.8-46.4,50.6L806.4,169.4L806.4,169.4z"/>
<path class="st0" d="M1061.4,39.2c-2.8,0-5.3,2.1-5.3,5.3v242.7c0,3.5,1.8,5.3,5.3,5.3h18.4c3.5,0,6-1.8,6-5.3V44.9
	c0-3.2-1.4-5.7-6-5.7H1061.4z"/>
<path class="st0" d="M1317.5,39.2h-98.1c-3.2,0-5.7,2.1-5.7,5.3v242.4c0,3.2,2.5,5.7,5.7,5.7h17.7c3.5,0,6-2.8,6-5.7V68.6h74.4
	c3.9,0,6.4-2.5,6.4-6.7V44.5C1323.1,41.3,1320.7,39.2,1317.5,39.2z"/>
<path class="st0" d="M1515.1,165.9c84.3-123.8,84.6-124.9,84.6-125.6c0-0.7-0.7-1.4-2.5-1.4h-25.5c-3.5,0-6,1.8-8.8,5.7l-65.9,97
	l-65.8-97c-2.5-3.9-5.3-5.7-8.5-5.7h-25.9c-1.8,0-2.5,0.7-2.5,1.4s0.3,1.8,85,125.3c-84.6,123.5-85,124.5-85,125.3
	c0,1.1,0.7,1.4,2.5,1.4h25.9c3.2,0,5.7-1.8,8.5-5.7l65.8-96.9l65.9,96.9c2.8,3.9,5.3,5.7,8.8,5.7h25.5c1.8,0,2.5-0.4,2.5-1.4
	C1599.7,290.1,1599.4,289,1515.1,165.9z"/>
<g>
	<defs>
		<rect id="SVGID_1_" x="1668.9" y="39.1" width="31.1" height="254.7"/>
	</defs>
	<clipPath id="SVGID_2_">
		<use xlink:href="#SVGID_1_"  style="overflow:visible;"/>
	</clipPath>
	<g class="st1">
		<path class="st0" d="M1675.6,39.2c-2.8,0-5.3,2.1-5.3,5.3v242.7c0,3.5,1.8,5.3,5.3,5.3h18.4c3.5,0,6-1.8,6-5.3V44.9
			c0-3.2-1.4-5.7-6-5.7H1675.6z"/>
	</g>
</g>
<path class="st2" d="M163.7,54.1c-8.2-1.2-16.4-2.3-25.7-2.3C63.2,51.8,3.5,111.4,3.5,186.2v14C1.2,188.5,0,178,0,166.3
	C0,77.5,72.5,5,161.4,5h2.3V54.1z"/>
<path class="st3" d="M138,61.1c9.4,0,17.5,1.2,25.7,2.3V88c-8.2-2.3-16.4-3.5-25.7-3.5c-56.1,0-102.9,45.6-102.9,101.7
	S81.9,289,138,289c56.1,0,101.7-46.7,101.7-102.8v-11.7h22.2c1.2,3.5,1.2,8.2,1.2,11.7c0,68.9-56.1,125-125.1,125
	c-69,0-125.1-56.1-125.1-125C12.9,117.2,69,61.1,138,61.1z"/>
<path class="st4" d="M171.9,65.8c46.8,12.9,81.9,52.6,90,100.5h-23.4c-7-35.1-32.7-64.3-66.7-76V65.8z"/>
<path class="st2" d="M321.6,174.5c-4.7,85.3-74.8,151.9-160.2,151.9c-19.9,0-37.4-3.5-55-9.3c10.5,2.3,21,3.5,31.6,3.5
	c73.7,0,134.5-59.6,134.5-134.4v-11.7L321.6,174.5z"/>
<path class="st0" d="M411.5,5h6.3v321.4h-6.3V5z"/>
</svg>
