<?xml version="1.0" encoding="utf-8"?>
<!-- Generator: Adobe Illustrator 25.2.1, SVG Export Plug-In . SVG Version: 6.00 Build 0)  -->
<svg version="1.1" id="Capa_1" xmlns="http://www.w3.org/2000/svg" xmlns:xlink="http://www.w3.org/1999/xlink" x="0px" y="0px"
	 viewBox="0 0 1698.7 321.5" style="enable-background:new 0 0 1698.7 321.5;" xml:space="preserve">
<style type="text/css">
	.st0{fill:#03C9D9;}
	.st1{fill:#00C9D9;}
	.st2{fill:#FE0D6D;}
	.st3{fill:#FFC52F;}
	.st4{fill-rule:evenodd;clip-rule:evenodd;fill:#03C9D9;}
	.st5{fill-rule:evenodd;clip-rule:evenodd;fill:#FE0D6D;}
	.st6{fill-rule:evenodd;clip-rule:evenodd;fill:#FFC52F;}
</style>
<path class="st0" d="M410.9,0h6.3v321.5h-6.3V0z"/>
<path class="st1" d="M569.8,34.2c-3.2,0-5.7,2.5-5.7,6v17.7c0,2.8,2.1,5.3,5.7,5.3h83.5c26.9,0,48.9,24.8,48.9,51
	c0,25.1-21.6,48.9-47.1,50.6l-102.3-0.3c-3.2,0-5.7,2.5-5.7,6v111.9c0,3.5,1.8,5.3,5.7,5.3h18.1c3.9,0,5.7-1.8,5.7-5.3v-88.9H654
	c46.7,0,76.8-40,76.8-80.7c0-43.5-29.4-78.6-75.4-78.6L569.8,34.2z"/>
<path class="st2" d="M806.3,166.2c-3.2,0-5.7,2.5-5.7,6v111.9c0,3.5,1.8,5.3,5.7,5.3h18.4c3.5,0,5.3-1.8,5.3-5.3v-88.9h60.5
	l53.5,88.9c1.8,2.8,4.2,5.3,7.8,5.3h26.5c2.1,0,3.2-0.3,3.2-1.1c0-0.7-0.3-1.4-1.1-2.8l-55.2-92c34.7-9.9,60.2-42.5,60.2-78.2
	c0-42.8-36.1-79.3-78.2-79.3h-85.7c-3.5,0-5.7,1.8-5.7,5.3V59c0,3.5,1.8,6,5.7,6h85.3c26.9,0,48.9,24.8,48.9,50.6
	c0,25.1-21.2,48.9-46.4,50.6L806.3,166.2L806.3,166.2z"/>
<path class="st3" d="M1061.9,34.2c-2.8,0-5.3,2.1-5.3,5.3v242.8c0,3.5,1.8,5.3,5.3,5.3h18.4c3.5,0,6-1.8,6-5.3V39.9
	c0-3.2-1.4-5.7-6-5.7H1061.9z"/>
<path class="st0" d="M1317.9,34.7h-98.1c-3.2,0-5.7,2.1-5.7,5.3v242.5c0,3.2,2.5,5.7,5.7,5.7h17.7c3.5,0,6-2.8,6-5.7V64.1h74.3
	c3.9,0,6.4-2.5,6.4-6.7V40C1323.6,36.8,1321.1,34.7,1317.9,34.7z"/>
<path class="st2" d="M1515.4,160.9c84.2-123.9,84.6-125,84.6-125.7c0-0.7-0.7-1.4-2.5-1.4h-25.5c-3.5,0-6,1.8-8.8,5.7l-65.8,97
	l-65.8-97c-2.5-3.9-5.3-5.7-8.5-5.7h-25.8c-1.8,0-2.5,0.7-2.5,1.4c0,0.7,0.4,1.8,85,125.3c-84.6,123.5-85,124.6-85,125.3
	c0,1.1,0.7,1.4,2.5,1.4h25.8c3.2,0,5.7-1.8,8.5-5.7l65.8-97l65.8,97c2.8,3.9,5.3,5.7,8.8,5.7h25.5c1.8,0,2.5-0.3,2.5-1.4
	C1600,285.2,1599.7,284.1,1515.4,160.9z"/>
<path class="st3" d="M1674.3,34.2c-2.8,0-5.3,2.1-5.3,5.3v242.8c0,3.5,1.8,5.3,5.3,5.3h18.4c3.5,0,6-1.8,6-5.3V39.9
	c0-3.2-1.4-5.7-6-5.7H1674.3z"/>
<path class="st4" d="M163.7,49.1c-8.2-1.2-16.4-2.3-25.7-2.3C63.1,46.8,3.5,106.4,3.5,181.2v14C1.2,183.6,0,173,0,161.3
	C0,72.5,72.5,0,161.3,0h2.3V49.1z"/>
<path class="st5" d="M138,56.1c9.4,0,17.5,1.2,25.7,2.3V83c-8.2-2.3-16.4-3.5-25.7-3.5c-56.1,0-102.9,45.6-102.9,101.7
	S81.8,284.1,138,284.1s101.7-46.8,101.7-102.9v-11.7h22.2c1.2,3.5,1.2,8.2,1.2,11.7c0,69-56.1,125.1-125.1,125.1
	S12.9,250.2,12.9,181.2S69,56.1,138,56.1z"/>
<path class="st6" d="M171.9,60.8c46.8,12.9,81.8,52.6,90,100.5h-23.4c-7-35.1-32.7-64.3-66.6-76V60.8z"/>
<path class="st4" d="M321.5,169.5c-4.7,85.3-74.8,152-160.2,152c-19.9,0-37.4-3.5-55-9.3c10.5,2.3,21,3.5,31.6,3.5
	c73.7,0,134.5-59.6,134.5-134.5v-11.7L321.5,169.5z"/>
</svg>
